<?xml version="1.0" encoding="utf-8"?>
<!-- Generator: Adobe Illustrator 16.0.0, SVG Export Plug-In . SVG Version: 6.00 Build 0)  -->
<!DOCTYPE svg PUBLIC "-//W3C//DTD SVG 1.1//EN" "http://www.w3.org/Graphics/SVG/1.1/DTD/svg11.dtd">
<svg version="1.1" id="Layer_1" xmlns="http://www.w3.org/2000/svg" xmlns:xlink="http://www.w3.org/1999/xlink" x="0px" y="0px"
	 width="200px" height="68px" viewBox="0 0 200 68" enable-background="new 0 0 200 68" xml:space="preserve">
<g>
	<rect x="40.744" y="25.645" fill="none" width="86.912" height="19.878"/>
	<path fill="#33CC33" d="M42.461,41.247v-14.79h4.835c1.605,0,2.812,0.332,3.621,0.995c0.81,0.664,1.214,1.646,1.214,2.946
		c0,0.691-0.196,1.302-0.589,1.833c-0.393,0.532-0.928,0.943-1.605,1.234c0.799,0.223,1.431,0.648,1.895,1.275
		c0.464,0.626,0.696,1.373,0.696,2.239c0,1.328-0.43,2.37-1.29,3.129c-0.86,0.759-2.076,1.138-3.647,1.138H42.461z M44.411,32.765
		h2.946c0.853,0,1.535-0.213,2.047-0.641c0.511-0.428,0.767-1.008,0.767-1.741c0-0.814-0.237-1.407-0.711-1.776
		s-1.195-0.555-2.164-0.555h-2.885V32.765z M44.411,34.33v5.323h3.22c0.907,0,1.624-0.235,2.148-0.706
		c0.525-0.471,0.788-1.119,0.788-1.945c0-1.78-0.969-2.671-2.905-2.671H44.411z"/>
	<path fill="#33CC33" d="M60.43,31.942c-0.285-0.047-0.593-0.071-0.925-0.071c-1.232,0-2.069,0.525-2.509,1.574v7.801h-1.879V30.256
		h1.829l0.03,1.27c0.616-0.981,1.49-1.473,2.621-1.473c0.366,0,0.643,0.047,0.833,0.142V31.942z"/>
	<path fill="#33CC33" d="M68.942,40.16c-0.731,0.86-1.805,1.29-3.22,1.29c-1.171,0-2.063-0.34-2.676-1.021
		c-0.613-0.681-0.923-1.688-0.93-3.022v-7.151h1.879v7.1c0,1.666,0.677,2.499,2.031,2.499c1.436,0,2.391-0.535,2.865-1.604v-7.995
		h1.879v10.991h-1.788L68.942,40.16z"/>
	<path fill="#33CC33" d="M73.178,35.66c0-1.713,0.396-3.076,1.188-4.088s1.842-1.519,3.149-1.519c1.341,0,2.387,0.474,3.139,1.422
		l0.092-1.219h1.716v10.727c0,1.422-0.421,2.542-1.265,3.361c-0.843,0.819-1.976,1.229-3.397,1.229
		c-0.792,0-1.568-0.169-2.326-0.508c-0.759-0.339-1.338-0.803-1.737-1.392l0.975-1.128c0.806,0.996,1.792,1.493,2.956,1.493
		c0.914,0,1.627-0.257,2.138-0.771s0.767-1.239,0.767-2.174V40.15c-0.752,0.866-1.778,1.3-3.078,1.3
		c-1.287,0-2.328-0.518-3.124-1.554C73.576,38.86,73.178,37.448,73.178,35.66z M75.068,35.874c0,1.239,0.254,2.212,0.762,2.92
		s1.219,1.062,2.133,1.062c1.185,0,2.056-0.538,2.611-1.615v-5.018c-0.576-1.049-1.439-1.574-2.59-1.574
		c-0.914,0-1.629,0.355-2.143,1.066C75.325,33.426,75.068,34.479,75.068,35.874z M78.277,24.151l1.087,0.843
		c-0.399,0.67-0.609,1.381-0.63,2.133v1.381h-1.879v-1.321c0-0.521,0.142-1.075,0.427-1.661
		C77.566,24.942,77.898,24.483,78.277,24.151z"/>
	<path fill="#33CC33" d="M89.857,41.45c-1.49,0-2.702-0.489-3.636-1.468c-0.935-0.979-1.402-2.287-1.402-3.926v-0.346
		c0-1.09,0.208-2.063,0.625-2.92c0.417-0.856,0.999-1.527,1.747-2.011c0.749-0.484,1.56-0.726,2.433-0.726
		c1.429,0,2.539,0.471,3.332,1.412c0.792,0.941,1.188,2.289,1.188,4.043v0.782h-7.446c0.027,1.084,0.344,1.959,0.95,2.626
		s1.376,1,2.311,1c0.664,0,1.226-0.135,1.686-0.406c0.46-0.271,0.864-0.63,1.209-1.076l1.148,0.894
		C93.081,40.742,91.699,41.45,89.857,41.45z M93.078,27.93h-6.826v-1.442h6.826V27.93z M89.624,31.597
		c-0.759,0-1.396,0.276-1.91,0.828c-0.515,0.552-0.833,1.326-0.955,2.321h5.505v-0.142c-0.054-0.955-0.312-1.695-0.772-2.22
		C91.032,31.86,90.409,31.597,89.624,31.597z"/>
</g>
<g>
	<rect x="57.157" y="47.162" fill="none" width="87.371" height="25.567"/>
	<path fill="#FF0033" d="M62.987,61.434c0.67,0,1.256-0.203,1.757-0.609s0.779-0.914,0.833-1.523h1.777
		c-0.034,0.63-0.25,1.229-0.65,1.798c-0.399,0.569-0.933,1.022-1.6,1.361c-0.667,0.339-1.373,0.508-2.118,0.508
		c-1.497,0-2.687-0.499-3.57-1.498s-1.326-2.365-1.326-4.099v-0.315c0-1.069,0.196-2.021,0.589-2.854
		c0.393-0.832,0.957-1.479,1.691-1.939c0.735-0.461,1.604-0.691,2.605-0.691c1.232,0,2.257,0.369,3.073,1.107
		s1.251,1.696,1.305,2.875h-1.777c-0.054-0.711-0.324-1.295-0.808-1.752c-0.484-0.457-1.082-0.687-1.793-0.687
		c-0.955,0-1.695,0.344-2.219,1.031c-0.525,0.688-0.788,1.682-0.788,2.981v0.355c0,1.267,0.261,2.242,0.782,2.926
		S62.019,61.434,62.987,61.434z"/>
	<path fill="#FF0033" d="M74.029,62.968c-1.49,0-2.702-0.489-3.636-1.468c-0.935-0.979-1.402-2.287-1.402-3.926v-0.346
		c0-1.09,0.208-2.063,0.625-2.92s0.999-1.527,1.747-2.012c0.749-0.484,1.56-0.727,2.433-0.727c1.429,0,2.539,0.471,3.332,1.412
		s1.188,2.289,1.188,4.043v0.782H70.87c0.027,1.084,0.344,1.959,0.95,2.626s1.376,1,2.311,1c0.664,0,1.226-0.135,1.686-0.406
		c0.46-0.271,0.864-0.63,1.209-1.076l1.148,0.894C77.252,62.26,75.871,62.968,74.029,62.968z M73.795,53.114
		c-0.759,0-1.396,0.276-1.91,0.828c-0.515,0.552-0.833,1.326-0.955,2.321h5.505v-0.143c-0.054-0.954-0.312-1.694-0.772-2.219
		C75.204,53.377,74.581,53.114,73.795,53.114z"/>
	<path fill="#FF0033" d="M81.017,67.874l-1.066-0.731c0.487-0.738,0.738-1.537,0.751-2.397v-0.935H82.5v0.772
		c0,0.616-0.134,1.228-0.401,1.833C81.832,67.022,81.471,67.509,81.017,67.874z M82.531,62.765h-1.879V47.162h1.879V62.765z"/>
	<path fill="#FF0033" d="M92.323,61.678c-0.731,0.86-1.805,1.29-3.22,1.29c-1.171,0-2.063-0.34-2.676-1.021
		c-0.613-0.681-0.923-1.688-0.93-3.022v-7.151h1.879v7.101c0,1.666,0.677,2.499,2.031,2.499c1.436,0,2.391-0.535,2.865-1.604v-7.995
		h1.879v10.991h-1.788L92.323,61.678z"/>
</g>
<path fill="none" stroke="#FF0033" stroke-width="1.8492" stroke-miterlimit="10" d="M92.984,59.967
	c0.461,1.727-1.387,6.131,6.933,5.899c8.321-0.23,3.699-14.33,14.794-8.319c11.094,6.008,14.564-8.748,16.18-13.158
	c1.619-4.411,5.086-24.058,5.086-24.058s-4.158,22.883-4.391,27.737s0.576,8.438,2.08,10.171c1.502,1.734,3.813,3.121,8.09,2.427"/>
<path fill="none" stroke="#33CC33" stroke-width="1.618" stroke-miterlimit="10" d="M126.5,44.37c0,0-10.635,2.729-13.176-2.589
	c-2.543-5.315,7.137-6.859,7.137-6.859s-6.459-1.632-6.688-6.718c-0.232-5.084,9.229-5.301,9.229-5.301s-8.061-0.845-6.211-8.473
	c1.85-7.627,13.25,0.049,13.25,0.049"/>
<path fill="none" stroke="#33CC33" stroke-width="1.618" stroke-miterlimit="10" d="M129.232,13.81c0,0-7.125-4.921-4.352-8.157
	c2.775-3.237,8.617,1.763,8.617,1.763s-0.758-2.458,3.635-5.692c6.586-1.965,9.014,0.461,9.709,2.658
	c0.693,2.196-1.967,3.698-1.967,3.698s6.59,0.462,7.166,2.195"/>
<path fill="none" stroke="#33CC33" stroke-width="1.618" stroke-miterlimit="10" d="M143.932,10.275c0,0,7.879,1.156,8.109,2.427
	c0.23,1.271-4.564,11.153-7.686,11.616"/>
<path fill="none" stroke="#33CC33" stroke-width="1.618" stroke-miterlimit="10" d="M149.467,23.91
	c-1.617,2.588-7.609,6.592-9.469,7.46"/>
<path fill="none" stroke="#33CC33" stroke-width="1.618" stroke-miterlimit="10" d="M138.402,35.816c0,0,10.287-6.329,8.67,1.996
	c-1.619,8.317-9.074,11.815-13.002,5.574"/>
<g>
</g>
<g>
</g>
<g>
</g>
<g>
</g>
<g>
</g>
<g>
</g>
<g>
</g>
<g>
</g>
<g>
</g>
<g>
</g>
<g>
</g>
<g>
</g>
<g>
</g>
<g>
</g>
<g>
</g>
</svg>
