<?xml version="1.0" encoding="utf-8"?>
<!-- Generator: Adobe Illustrator 16.0.0, SVG Export Plug-In . SVG Version: 6.00 Build 0)  -->
<!DOCTYPE svg PUBLIC "-//W3C//DTD SVG 1.1//EN" "http://www.w3.org/Graphics/SVG/1.1/DTD/svg11.dtd">
<svg version="1.1" id="Layer_1" xmlns="http://www.w3.org/2000/svg" xmlns:xlink="http://www.w3.org/1999/xlink" x="0px" y="0px"
	 width="200px" height="68px" viewBox="0 0 200 68" enable-background="new 0 0 200 68" xml:space="preserve">
<path fill="#30B331" stroke="#FFFFFF" stroke-linecap="round" stroke-miterlimit="10" d="M42.938,32.555v-14.79h4.835
	c1.605,0,2.812,0.332,3.621,0.996c0.81,0.664,1.214,1.646,1.214,2.946c0,0.691-0.196,1.302-0.589,1.833
	c-0.393,0.532-0.928,0.943-1.605,1.234c0.799,0.223,1.431,0.648,1.895,1.275c0.464,0.626,0.696,1.373,0.696,2.239
	c0,1.328-0.43,2.37-1.29,3.129c-0.86,0.759-2.076,1.138-3.647,1.138H42.938z M44.888,24.073h2.946c0.853,0,1.535-0.213,2.047-0.641
	c0.511-0.428,0.767-1.008,0.767-1.741c0-0.814-0.237-1.407-0.711-1.776s-1.195-0.555-2.164-0.555h-2.885V24.073z M44.888,25.637
	v5.323h3.22c0.907,0,1.624-0.235,2.148-0.706c0.525-0.471,0.788-1.119,0.788-1.945c0-1.78-0.969-2.671-2.905-2.671H44.888z"/>
<path fill="#FFFFFF" d="M60.907,23.25c-0.285-0.047-0.593-0.071-0.925-0.071c-1.232,0-2.069,0.525-2.509,1.574v7.801h-1.879V21.564
	h1.829l0.03,1.27c0.616-0.981,1.49-1.473,2.621-1.473c0.366,0,0.643,0.047,0.833,0.142V23.25z"/>
<path fill="#FFFFFF" d="M69.419,31.468c-0.731,0.86-1.805,1.29-3.22,1.29c-1.171,0-2.063-0.34-2.676-1.021
	c-0.613-0.681-0.923-1.688-0.93-3.022v-7.151h1.879v7.1c0,1.666,0.677,2.499,2.031,2.499c1.436,0,2.391-0.535,2.865-1.604v-7.995
	h1.879v10.991h-1.788L69.419,31.468z"/>
<path fill="#FFFFFF" d="M73.655,26.968c0-1.713,0.396-3.076,1.188-4.088s1.842-1.519,3.149-1.519c1.341,0,2.387,0.474,3.139,1.422
	l0.092-1.219h1.716v10.727c0,1.422-0.421,2.542-1.265,3.361c-0.843,0.819-1.976,1.229-3.397,1.229c-0.792,0-1.568-0.169-2.326-0.508
	c-0.759-0.339-1.338-0.803-1.737-1.392l0.975-1.128c0.806,0.996,1.792,1.493,2.956,1.493c0.914,0,1.627-0.257,2.138-0.771
	s0.767-1.239,0.767-2.174v-0.944c-0.752,0.866-1.778,1.3-3.078,1.3c-1.287,0-2.328-0.518-3.124-1.554
	C74.053,30.168,73.655,28.756,73.655,26.968z M75.544,27.182c0,1.239,0.254,2.212,0.762,2.92s1.219,1.062,2.133,1.062
	c1.185,0,2.056-0.538,2.611-1.615V24.53c-0.576-1.049-1.439-1.574-2.59-1.574c-0.914,0-1.629,0.355-2.143,1.066
	C75.801,24.733,75.544,25.786,75.544,27.182z M78.754,15.459l1.087,0.843c-0.399,0.67-0.609,1.381-0.63,2.133v1.381h-1.879v-1.321
	c0-0.521,0.142-1.075,0.427-1.661C78.043,16.25,78.375,15.791,78.754,15.459z"/>
<path fill="#FFFFFF" d="M90.334,32.758c-1.49,0-2.702-0.489-3.636-1.468c-0.935-0.979-1.402-2.287-1.402-3.926v-0.346
	c0-1.09,0.208-2.063,0.625-2.92c0.417-0.856,0.999-1.527,1.747-2.011c0.749-0.484,1.56-0.726,2.433-0.726
	c1.429,0,2.539,0.471,3.332,1.412c0.792,0.941,1.188,2.289,1.188,4.043v0.782h-7.446c0.027,1.084,0.344,1.959,0.95,2.626
	s1.376,1,2.311,1c0.664,0,1.226-0.135,1.686-0.406c0.46-0.271,0.864-0.63,1.209-1.076l1.148,0.894
	C93.558,32.05,92.176,32.758,90.334,32.758z M93.554,19.238h-6.826v-1.442h6.826V19.238z M90.101,22.905
	c-0.759,0-1.396,0.276-1.91,0.828c-0.515,0.552-0.833,1.326-0.955,2.321h5.505v-0.142c-0.054-0.955-0.312-1.695-0.772-2.22
	C91.509,23.167,90.886,22.905,90.101,22.905z"/>
<g>
	<rect x="57.633" y="38.47" fill="none" width="87.371" height="25.567"/>
	<path fill="#FCFCFC" d="M63.464,52.741c0.67,0,1.256-0.203,1.757-0.609s0.779-0.914,0.833-1.523h1.777
		c-0.034,0.63-0.25,1.229-0.65,1.798c-0.399,0.569-0.933,1.022-1.6,1.361c-0.667,0.339-1.373,0.508-2.118,0.508
		c-1.497,0-2.687-0.499-3.57-1.498s-1.326-2.365-1.326-4.099v-0.315c0-1.069,0.196-2.021,0.589-2.854
		c0.393-0.832,0.957-1.479,1.691-1.939c0.735-0.461,1.604-0.691,2.605-0.691c1.232,0,2.257,0.369,3.073,1.107
		s1.251,1.696,1.305,2.875h-1.777c-0.054-0.711-0.324-1.295-0.808-1.752c-0.484-0.457-1.082-0.687-1.793-0.687
		c-0.955,0-1.695,0.344-2.219,1.031c-0.525,0.688-0.788,1.682-0.788,2.981v0.355c0,1.267,0.261,2.242,0.782,2.926
		S62.496,52.741,63.464,52.741z"/>
	<path fill="#FCFCFC" d="M74.505,54.275c-1.49,0-2.702-0.489-3.636-1.468c-0.935-0.979-1.402-2.287-1.402-3.926v-0.346
		c0-1.09,0.208-2.063,0.625-2.92s0.999-1.527,1.747-2.012c0.749-0.484,1.56-0.727,2.433-0.727c1.429,0,2.539,0.471,3.332,1.412
		s1.188,2.289,1.188,4.043v0.782h-7.446c0.027,1.084,0.344,1.959,0.95,2.626s1.376,1,2.311,1c0.664,0,1.226-0.135,1.686-0.406
		c0.46-0.271,0.864-0.63,1.209-1.076l1.148,0.894C77.729,53.567,76.347,54.275,74.505,54.275z M74.272,44.422
		c-0.759,0-1.396,0.276-1.91,0.828c-0.515,0.552-0.833,1.326-0.955,2.321h5.505v-0.143c-0.054-0.954-0.312-1.694-0.772-2.219
		C75.68,44.685,75.057,44.422,74.272,44.422z"/>
	<path fill="#FCFCFC" d="M81.494,59.182l-1.066-0.731c0.487-0.738,0.738-1.537,0.751-2.397v-0.935h1.798v0.772
		c0,0.616-0.134,1.228-0.401,1.833C82.308,58.33,81.947,58.816,81.494,59.182z M83.007,54.072h-1.879V38.47h1.879V54.072z"/>
	<path fill="#FCFCFC" d="M92.799,52.985c-0.731,0.86-1.805,1.29-3.22,1.29c-1.171,0-2.063-0.34-2.676-1.021
		c-0.613-0.681-0.923-1.688-0.93-3.022v-7.151h1.879v7.101c0,1.666,0.677,2.499,2.031,2.499c1.436,0,2.391-0.535,2.865-1.604v-7.995
		h1.879v10.991H92.84L92.799,52.985z"/>
</g>
<path fill="none" stroke="#FFFFFF" stroke-width="1.8" stroke-miterlimit="10" d="M93.688,51.813
	c0.153,4.153-0.037,9.813,7.631,9.813c5.932,0,7.182-10.625,16.807-1.625c10,7.713,11.036-5.076,12.651-9.486
	c1.619-4.411,4.411-23.785,4.817-23.691s-3.89,22.516-4.122,27.37s1.881,7.586,3.528,9.183c3,2.908,11.223,3.444,15.5,2.75"/>
<g>
	<path fill="#33CC33" d="M126.52,50.756c-1.032,0.366-2.101,0.604-3.18,0.809c-1.08,0.199-2.182,0.31-3.297,0.317
		c-1.113,0.002-2.25-0.09-3.366-0.405c-1.108-0.311-2.24-0.845-3.089-1.768c-0.434-0.448-0.771-0.982-1.02-1.557
		c-0.106-0.217-0.22-0.566-0.298-0.892c-0.063-0.319-0.098-0.646-0.091-0.981c0.019-0.67,0.234-1.346,0.597-1.883
		c0.358-0.541,0.806-0.979,1.289-1.328c0.974-0.691,2.031-1.12,3.094-1.461c1.069-0.331,2.141-0.563,3.249-0.707l-0.029,0.654
		c-1.032-0.328-1.972-0.779-2.889-1.306c-0.901-0.542-1.762-1.18-2.463-1.989c-0.712-0.799-1.236-1.782-1.488-2.849
		c-0.12-0.541-0.188-1.063-0.13-1.661c0.059-0.575,0.27-1.146,0.594-1.635c0.66-0.985,1.664-1.604,2.654-2.046
		c1.007-0.432,2.048-0.707,3.083-0.928c0.518-0.112,1.036-0.203,1.548-0.284l0.752-0.125l0.348-0.068
		c0.093-0.018,0.233-0.065,0.183-0.049l-0.06,0.035c-0.028,0.022-0.072,0.048-0.157,0.161c-0.023,0.036-0.066,0.103-0.099,0.214
		c-0.014,0.049-0.021,0.1-0.023,0.149c-0.004,0.041,0.028,0.309,0.014,0.183l-0.003-0.012c-0.002-0.012-0.004-0.011,0.011,0.05
		c0.022,0.086,0.065,0.173,0.12,0.24c0.183,0.194,0.143,0.114,0.125,0.125c-0.053-0.022-0.171-0.06-0.281-0.093l-0.738-0.213
		c-0.511-0.149-1.031-0.322-1.545-0.537c-1.02-0.429-2.05-1.031-2.836-1.952c-0.795-0.905-1.292-2.099-1.395-3.269
		c-0.106-1.187,0.047-2.279,0.368-3.393c0.124-0.439,0.397-1.122,0.737-1.596c0.342-0.503,0.785-0.97,1.324-1.286
		c1.07-0.669,2.313-0.772,3.405-0.665c1.113,0.097,2.144,0.442,3.131,0.823c0.985,0.394,1.931,0.854,2.829,1.391
		c0.896,0.539,1.771,1.101,2.588,1.75l-0.09,0.134c-0.91-0.48-1.836-0.932-2.778-1.327c-0.948-0.381-1.891-0.768-2.861-1.033
		c-0.964-0.277-1.949-0.456-2.898-0.487c-0.945-0.037-1.871,0.138-2.532,0.623c-0.342,0.227-0.604,0.548-0.817,0.908
		c-0.229,0.388-0.324,0.684-0.479,1.235c-0.228,0.87-0.335,1.864-0.221,2.731c0.114,0.878,0.425,1.686,0.994,2.336
		c0.564,0.65,1.326,1.175,2.19,1.569c0.433,0.199,0.886,0.369,1.36,0.526l0.74,0.242c0.135,0.047,0.262,0.088,0.445,0.171
		c0.099,0.064,0.179,0.042,0.447,0.333c0.063,0.082,0.116,0.182,0.146,0.281l0.021,0.084c-0.014-0.118,0.023,0.158,0.016,0.207
		c-0.004,0.057-0.013,0.116-0.028,0.173c-0.035,0.127-0.084,0.208-0.12,0.257c-0.103,0.14-0.172,0.186-0.228,0.226
		c-0.076,0.053-0.096,0.058-0.144,0.083c-0.285,0.124-0.4,0.127-0.559,0.164l-0.414,0.066l-0.778,0.102l-1.509,0.201
		c-0.993,0.148-1.972,0.348-2.885,0.675c-0.91,0.315-1.78,0.762-2.344,1.461c-0.586,0.692-0.708,1.645-0.556,2.621
		c0.134,0.964,0.58,1.877,1.211,2.643c1.284,1.527,3.209,2.502,5.125,2.98l1.344,0.336l-1.373,0.318
		c-1.022,0.236-2.049,0.569-3.013,0.979c-0.962,0.411-1.891,0.91-2.628,1.553c-0.749,0.633-1.24,1.408-1.249,2.229
		c-0.002,0.207,0.022,0.417,0.066,0.631c0.061,0.196,0.088,0.371,0.211,0.646c0.171,0.42,0.406,0.825,0.721,1.161
		c0.611,0.69,1.478,1.18,2.427,1.504c0.956,0.313,1.985,0.501,3.032,0.58c2.099,0.165,4.26,0.045,6.399-0.244L126.52,50.756z"/>
</g>
<g>
	<path fill="#33CC33" d="M130.683,19.004c-0.757-0.379-1.449-0.861-2.139-1.359c-0.338-0.257-0.665-0.531-0.983-0.819
		c-0.324-0.282-0.617-0.6-0.91-0.924c-0.279-0.337-0.575-0.666-0.799-1.064c-0.252-0.374-0.439-0.808-0.614-1.252
		c-0.063-0.239-0.117-0.482-0.165-0.727c-0.025-0.252-0.008-0.52-0.004-0.78c0.074-0.519,0.242-1.053,0.555-1.469l0.108-0.165
		l0.056-0.081l0.028-0.04l0.007-0.01l0.003-0.005l0.063-0.065l0.015-0.013l0.229-0.21c0.166-0.14,0.265-0.277,0.546-0.427
		c0.493-0.336,0.998-0.444,1.484-0.528c0.245-0.014,0.49-0.023,0.732-0.02l0.696,0.106c0.446,0.106,0.883,0.23,1.285,0.41
		c0.414,0.158,0.793,0.373,1.17,0.58c0.374,0.214,0.732,0.447,1.081,0.689c0.703,0.479,1.372,0.979,2.027,1.526l-0.396,0.26
		c-0.052-0.197-0.037-0.339-0.059-0.509l0.033-0.477c0.013-0.159,0.067-0.306,0.1-0.459c0.045-0.149,0.062-0.311,0.131-0.449
		c0.123-0.282,0.229-0.578,0.371-0.851c0.165-0.257,0.32-0.521,0.48-0.787c0.145-0.28,0.372-0.481,0.556-0.728
		c0.198-0.233,0.386-0.48,0.595-0.703l1.328-1.258l0.046-0.044l0.128-0.042l0.962-0.323c0.319-0.113,0.656-0.181,0.986-0.269
		c0.665-0.154,1.349-0.277,2.05-0.316c0.347-0.04,0.705-0.023,1.061-0.022c0.356,0.003,0.719,0.056,1.079,0.098
		c0.36,0.076,0.725,0.135,1.08,0.268c0.36,0.104,0.708,0.276,1.049,0.454c0.34,0.188,0.653,0.422,0.946,0.685
		c0.283,0.272,0.542,0.568,0.768,0.89c0.216,0.326,0.408,0.667,0.549,1.027c0.066,0.208,0.123,0.307,0.191,0.604
		c0.031,0.17,0.074,0.282,0.088,0.575c0.048,0.527-0.058,0.917-0.192,1.339c-0.152,0.401-0.366,0.755-0.612,1.064
		c-0.25,0.303-0.521,0.571-0.81,0.808c-0.297,0.239-0.575,0.436-0.939,0.636l-0.302-1.333c1.319,0.17,2.594,0.422,3.862,0.801
		c0.63,0.193,1.264,0.387,1.861,0.704c0.297,0.157,0.595,0.315,0.861,0.54c0.14,0.094,0.261,0.229,0.369,0.368
		c0.127,0.116,0.166,0.321,0.239,0.469l-0.154,0.051c-0.108-0.114-0.15-0.249-0.294-0.324c-0.121-0.087-0.231-0.176-0.378-0.234
		c-0.263-0.143-0.565-0.23-0.86-0.315c-0.598-0.157-1.219-0.266-1.841-0.354c-1.245-0.156-2.523-0.241-3.766-0.281l-2.143-0.07
		l1.842-1.264c0.199-0.137,0.45-0.333,0.647-0.527c0.205-0.198,0.384-0.41,0.536-0.627c0.143-0.221,0.257-0.441,0.331-0.658
		c0.056-0.201,0.098-0.468,0.068-0.598c0.019-0.038-0.041-0.243-0.078-0.394c-0.002-0.024-0.088-0.224-0.126-0.328
		c-0.11-0.247-0.232-0.485-0.38-0.707c-0.152-0.218-0.325-0.417-0.513-0.604c-0.2-0.174-0.408-0.338-0.636-0.485
		c-0.234-0.135-0.471-0.276-0.739-0.366c-0.255-0.115-0.54-0.172-0.817-0.25c-0.29-0.045-0.577-0.108-0.878-0.125
		c-0.301-0.014-0.6-0.048-0.908-0.027c-0.611,0.007-1.236,0.063-1.858,0.161c-0.311,0.056-0.627,0.076-0.938,0.152l-0.941,0.188
		l0.174-0.086l-1.395,0.996c-0.218,0.182-0.412,0.386-0.621,0.579c-0.193,0.204-0.441,0.374-0.595,0.608
		c-0.172,0.222-0.348,0.444-0.514,0.674c-0.145,0.239-0.255,0.496-0.387,0.744c-0.074,0.122-0.082,0.263-0.127,0.394
		c-0.031,0.133-0.085,0.265-0.099,0.399l-0.038,0.404c0.011,0.121,0.012,0.279,0.04,0.367l0.263,0.797l-0.658-0.537
		c-0.626-0.511-1.323-0.962-2.042-1.342c-0.366-0.18-0.735-0.348-1.11-0.494c-0.376-0.138-0.751-0.281-1.132-0.365
		c-0.377-0.108-0.759-0.154-1.127-0.189l-0.545-0.004c-0.172,0.033-0.341,0.055-0.51,0.071c-0.164,0.034-0.31,0.104-0.465,0.147
		c-0.162,0.045-0.233,0.145-0.365,0.189c-0.107,0.015-0.278,0.209-0.425,0.341l-0.227,0.213l-0.015,0.013
		c0.025-0.026-0.062,0.064,0.057-0.058l-0.002,0.003l-0.004,0.006l-0.015,0.025l-0.029,0.05l-0.063,0.096
		c-0.206,0.241-0.289,0.521-0.354,0.813c0.003,0.154-0.023,0.304-0.017,0.463c0.034,0.163,0.062,0.326,0.082,0.494
		c0.108,0.335,0.216,0.68,0.406,1.013c0.159,0.339,0.385,0.666,0.596,0.996c0.917,1.29,2.046,2.506,3.246,3.658L130.683,19.004z"/>
</g>
<g>
	<path fill="#33CC33" d="M143.939,16.351c0,0,1.429,0.147,3.559,0.519c1.063,0.2,2.305,0.412,3.61,0.902
		c0.326,0.135,0.658,0.263,0.99,0.561c0.08,0.082,0.171,0.169,0.225,0.327c0.017,0.062,0.022,0.021,0.043,0.167l-0.001,0.065
		l-0.002,0.131c0.014,0.161-0.057,0.394-0.091,0.591c-0.193,0.75-0.438,1.414-0.721,2.092c-0.269,0.678-0.566,1.341-0.878,1.985
		c-0.303,0.65-0.641,1.268-0.98,1.861c-0.356,0.582-0.719,1.137-1.091,1.644c-0.385,0.5-0.753,0.967-1.14,1.366
		c-0.359,0.417-0.771,0.737-1.11,1.03c-0.367,0.273-0.685,0.507-1.003,0.626c-0.286,0.16-0.55,0.208-0.726,0.232
		c-0.17,0.028-0.261,0.043-0.261,0.043c-0.027,0.004-0.052-0.013-0.057-0.04c-0.003-0.021,0.008-0.042,0.026-0.051l0.015-0.007
		c0,0,0.08-0.04,0.23-0.114c0.147-0.071,0.363-0.152,0.592-0.365c0.246-0.171,0.498-0.447,0.794-0.744
		c0.275-0.324,0.584-0.687,0.884-1.122c0.314-0.419,0.623-0.902,0.959-1.403c0.31-0.521,0.67-1.048,0.992-1.628
		c0.691-1.129,1.408-2.358,2.021-3.634c0.305-0.629,0.585-1.307,0.779-1.914c0.028-0.148,0.107-0.249,0.103-0.442l0.009-0.131
		l0.005-0.065c0.007,0.104-0.003,0.023-0.001,0.044c0.006-0.01-0.027-0.059-0.066-0.098c-0.173-0.179-0.478-0.342-0.766-0.472
		c-1.195-0.514-2.425-0.825-3.458-1.094c-2.085-0.515-3.5-0.763-3.501-0.763c-0.026-0.004-0.045-0.03-0.04-0.058
		C143.889,16.366,143.913,16.348,143.939,16.351z"/>
</g>
<g>
	<path fill="#33CC33" d="M149.467,30.035c0,0-0.062,0.191-0.191,0.509c-0.066,0.158-0.144,0.352-0.248,0.563
		c-0.084,0.22-0.26,0.436-0.428,0.683c-0.173,0.246-0.365,0.516-0.589,0.788c-0.224,0.255-0.459,0.515-0.719,0.774
		c-0.258,0.257-0.521,0.535-0.818,0.771c-0.29,0.247-0.594,0.486-0.897,0.727c-1.232,0.934-2.592,1.682-3.686,2.107
		c-0.541,0.221-1.012,0.367-1.357,0.437c-0.34,0.075-0.535,0.102-0.535,0.102s0.14-0.151,0.387-0.387
		c0.25-0.225,0.592-0.568,1.021-0.943c0.429-0.37,0.921-0.819,1.471-1.253c0.538-0.454,1.137-0.901,1.727-1.354
		c0.587-0.456,1.206-0.875,1.758-1.292c0.277-0.208,0.57-0.389,0.831-0.57c0.236-0.19,0.48-0.356,0.709-0.513
		c0.219-0.17,0.461-0.28,0.635-0.447c0.179-0.155,0.349-0.28,0.484-0.385C149.297,30.145,149.467,30.035,149.467,30.035z"/>
</g>
<g>
	<path fill="#33CC33" d="M138.402,41.941c0,0,0.352-0.37,1.044-0.938c0.347-0.282,0.777-0.619,1.306-0.964
		c0.263-0.175,0.549-0.354,0.86-0.536c0.313-0.18,0.699-0.221,1.072-0.353c0.773-0.192,1.634-0.41,2.688-0.276
		c0.518,0.069,1.11,0.255,1.604,0.675c0.498,0.414,0.811,1.021,0.933,1.577c0.269,1.151,0.109,2.156-0.105,3.222
		c-0.124,0.476-0.217,0.94-0.368,1.434c-0.182,0.499-0.342,1.018-0.552,1.502c-0.432,0.955-0.934,1.887-1.579,2.713
		c-0.321,0.413-0.644,0.82-1.033,1.169c-0.353,0.38-0.768,0.69-1.182,0.988c-0.396,0.321-0.883,0.513-1.309,0.762
		c-0.479,0.156-0.926,0.376-1.41,0.442c-0.479,0.089-0.946,0.164-1.413,0.123c-0.466,0.018-0.902-0.083-1.321-0.185
		c-0.212-0.043-0.414-0.096-0.601-0.18c-0.194-0.064-0.379-0.147-0.539-0.261c-0.343-0.191-0.575-0.49-0.823-0.713
		c-0.252-0.224-0.447-0.46-0.598-0.705c-0.156-0.23-0.299-0.442-0.429-0.634c-0.213-0.407-0.337-0.744-0.436-0.959
		c-0.093-0.217-0.143-0.333-0.143-0.333s0.378,0.323,1.04,0.89c0.178,0.113,0.375,0.237,0.589,0.373
		c0.103,0.067,0.21,0.137,0.32,0.208c0.121,0.052,0.246,0.105,0.375,0.161c0.262,0.094,0.503,0.255,0.807,0.286
		c0.297,0.03,0.52,0.29,0.845,0.3c0.303,0.072,0.617,0.155,0.957,0.133c0.337,0.038,0.685-0.025,1.042-0.09
		c0.36-0.04,0.708-0.227,1.077-0.335c0.337-0.21,0.721-0.342,1.045-0.612c0.337-0.244,0.68-0.494,0.976-0.818
		c0.327-0.287,0.602-0.639,0.878-0.993c0.555-0.708,0.995-1.527,1.378-2.371c0.183-0.421,0.311-0.851,0.474-1.273
		c0.14-0.445,0.24-0.944,0.361-1.41c0.177-0.824,0.285-1.776,0.108-2.436c-0.164-0.69-0.538-0.944-1.188-1.046
		c-0.639-0.093-1.386,0.062-2.038,0.232c-0.338,0.074-0.63,0.25-0.949,0.306c-0.322,0.051-0.631,0.11-0.92,0.175
		c-0.578,0.132-1.091,0.258-1.513,0.371C138.891,41.788,138.402,41.941,138.402,41.941z"/>
</g>
<g>
</g>
<g>
</g>
<g>
</g>
<g>
</g>
<g>
</g>
<g>
</g>
<g>
</g>
<g>
</g>
<g>
</g>
<g>
</g>
<g>
</g>
<g>
</g>
<g>
</g>
<g>
</g>
<g>
</g>
</svg>
