<?xml version="1.0" encoding="utf-8"?>
<!-- Generator: Adobe Illustrator 16.0.0, SVG Export Plug-In . SVG Version: 6.00 Build 0)  -->
<!DOCTYPE svg PUBLIC "-//W3C//DTD SVG 1.1//EN" "http://www.w3.org/Graphics/SVG/1.1/DTD/svg11.dtd">
<svg version="1.1" id="Layer_1" xmlns="http://www.w3.org/2000/svg" xmlns:xlink="http://www.w3.org/1999/xlink" x="0px" y="0px"
	 width="200px" height="68px" viewBox="0 0 200 68" enable-background="new 0 0 200 68" xml:space="preserve">
<g>
	<rect x="-1.843" y="16.225" fill="none" width="95.569" height="21.859"/>
	<path fill="#6A6D7C" d="M0.045,33.382V17.119h5.317c1.765,0,3.092,0.365,3.982,1.095c0.89,0.73,1.334,1.81,1.334,3.239
		c0,0.76-0.216,1.432-0.647,2.016c-0.432,0.584-1.021,1.037-1.765,1.357c0.879,0.246,1.573,0.713,2.083,1.402
		c0.51,0.689,0.765,1.51,0.765,2.463c0,1.459-0.473,2.606-1.419,3.44s-2.282,1.251-4.01,1.251H0.045z M2.189,24.055h3.239
		c0.938,0,1.688-0.235,2.25-0.705c0.563-0.47,0.843-1.108,0.843-1.914c0-0.896-0.261-1.547-0.782-1.954
		c-0.521-0.406-1.314-0.61-2.379-0.61H2.189V24.055z M2.189,25.775v5.853H5.73c0.998,0,1.785-0.259,2.362-0.776
		c0.577-0.518,0.866-1.23,0.866-2.139c0-1.958-1.065-2.938-3.195-2.938H2.189z"/>
	<path fill="#6A6D7C" d="M19.804,23.15c-0.313-0.052-0.651-0.078-1.016-0.078c-1.355,0-2.275,0.577-2.759,1.731v8.578h-2.066V21.296
		h2.01l0.034,1.396c0.677-1.08,1.638-1.62,2.882-1.62c0.402,0,0.707,0.052,0.916,0.156V23.15z"/>
	<path fill="#6A6D7C" d="M29.164,32.187c-0.804,0.946-1.984,1.419-3.541,1.419c-1.289,0-2.27-0.375-2.943-1.123
		c-0.674-0.749-1.015-1.856-1.022-3.323v-7.863h2.066v7.808c0,1.832,0.745,2.748,2.234,2.748c1.579,0,2.628-0.588,3.15-1.765v-8.791
		h2.066v12.085h-1.966L29.164,32.187z"/>
	<path fill="#6A6D7C" d="M33.822,27.238c0-1.884,0.436-3.382,1.307-4.496c0.872-1.113,2.025-1.67,3.463-1.67
		c1.474,0,2.625,0.521,3.451,1.564l0.101-1.34h1.888v11.795c0,1.564-0.463,2.796-1.391,3.698c-0.927,0.9-2.172,1.351-3.736,1.351
		c-0.871,0-1.724-0.186-2.558-0.558c-0.834-0.373-1.471-0.883-1.91-1.53l1.072-1.24c0.886,1.095,1.97,1.642,3.25,1.642
		c1.005,0,1.789-0.282,2.351-0.849c0.563-0.565,0.843-1.363,0.843-2.39v-1.039c-0.826,0.954-1.955,1.43-3.384,1.43
		c-1.415,0-2.56-0.57-3.435-1.709C34.259,30.757,33.822,29.205,33.822,27.238z M35.899,27.473c0,1.363,0.279,2.433,0.838,3.211
		c0.558,0.778,1.34,1.167,2.345,1.167c1.303,0,2.26-0.592,2.871-1.776v-5.518c-0.633-1.154-1.582-1.731-2.848-1.731
		c-1.005,0-1.791,0.391-2.357,1.173C36.182,24.781,35.899,25.939,35.899,27.473z M39.429,14.583l1.195,0.927
		c-0.439,0.737-0.67,1.519-0.692,2.346v1.519h-2.066v-1.452c0-0.573,0.156-1.182,0.469-1.826
		C38.647,15.453,39.012,14.948,39.429,14.583z"/>
	<path fill="#6A6D7C" d="M52.163,33.605c-1.639,0-2.971-0.538-3.999-1.614c-1.027-1.076-1.542-2.515-1.542-4.317v-0.38
		c0-1.199,0.229-2.269,0.687-3.211c0.458-0.942,1.099-1.679,1.921-2.211s1.714-0.799,2.675-0.799c1.571,0,2.792,0.518,3.664,1.553
		c0.871,1.035,1.307,2.517,1.307,4.445v0.86h-8.188c0.03,1.191,0.378,2.154,1.044,2.887s1.514,1.1,2.541,1.1
		c0.73,0,1.348-0.149,1.854-0.447c0.506-0.297,0.949-0.692,1.329-1.184l1.262,0.983C55.707,32.827,54.188,33.605,52.163,33.605z
		 M55.703,18.738h-7.506v-1.586h7.506V18.738z M51.906,22.771c-0.834,0-1.534,0.304-2.1,0.911s-0.916,1.458-1.05,2.552h6.054v-0.157
		c-0.06-1.05-0.342-1.863-0.849-2.44C53.454,23.059,52.769,22.771,51.906,22.771z"/>
</g>
<g>
	<rect x="16.203" y="39.887" fill="none" width="96.074" height="28.113"/>
	<path fill="#FEDA6A" d="M22.615,55.58c0.737,0,1.381-0.224,1.932-0.671c0.551-0.446,0.856-1.005,0.916-1.675h1.955
		c-0.038,0.692-0.275,1.352-0.715,1.977c-0.439,0.626-1.026,1.125-1.759,1.497s-1.51,0.559-2.329,0.559
		c-1.646,0-2.955-0.549-3.926-1.647s-1.458-2.601-1.458-4.507v-0.347c0-1.177,0.216-2.223,0.647-3.139
		c0.432-0.916,1.052-1.627,1.86-2.134c0.808-0.506,1.763-0.759,2.865-0.759c1.355,0,2.481,0.405,3.378,1.217
		c0.897,0.813,1.376,1.865,1.436,3.161h-1.955c-0.06-0.781-0.356-1.424-0.888-1.927c-0.532-0.502-1.189-0.754-1.971-0.754
		c-1.05,0-1.864,0.378-2.441,1.134s-0.865,1.849-0.865,3.278v0.391c0,1.393,0.286,2.465,0.86,3.217
		C20.73,55.204,21.549,55.58,22.615,55.58z"/>
	<path fill="#FEDA6A" d="M34.756,57.267c-1.639,0-2.971-0.538-3.999-1.614c-1.027-1.076-1.542-2.515-1.542-4.317v-0.38
		c0-1.198,0.229-2.269,0.687-3.211c0.458-0.941,1.099-1.679,1.921-2.212c0.823-0.532,1.714-0.798,2.675-0.798
		c1.571,0,2.792,0.518,3.664,1.552c0.871,1.035,1.307,2.518,1.307,4.446v0.859h-8.188c0.03,1.191,0.378,2.154,1.044,2.888
		s1.514,1.101,2.541,1.101c0.73,0,1.348-0.149,1.854-0.447c0.506-0.298,0.949-0.692,1.329-1.184l1.262,0.982
		C38.3,56.488,36.781,57.267,34.756,57.267z M34.499,46.432c-0.834,0-1.534,0.304-2.1,0.91c-0.566,0.607-0.916,1.458-1.05,2.553
		h6.054v-0.156c-0.06-1.05-0.342-1.863-0.849-2.44C36.047,46.721,35.362,46.432,34.499,46.432z"/>
	<path fill="#FEDA6A" d="M42.44,62.661l-1.173-0.804c0.536-0.813,0.812-1.69,0.827-2.637v-1.027h1.977v0.849
		c0,0.678-0.147,1.35-0.441,2.017C43.336,61.725,42.939,62.259,42.44,62.661z M44.105,57.043h-2.066V39.887h2.066V57.043z"/>
	<path fill="#FEDA6A" d="M54.872,55.848c-0.804,0.946-1.984,1.419-3.541,1.419c-1.289,0-2.27-0.374-2.943-1.123
		c-0.674-0.748-1.015-1.855-1.022-3.322v-7.864h2.066v7.808c0,1.832,0.745,2.748,2.234,2.748c1.579,0,2.628-0.588,3.15-1.765v-8.791
		h2.066v12.086h-1.966L54.872,55.848z"/>
</g>
<path fill="none" stroke="#FEDA6A" stroke-width="1.9793" stroke-miterlimit="10" d="M55.85,54.559
	c0.169,4.566-0.041,10.789,8.391,10.789c6.523,0,7.897-11.684,18.481-1.787c10.996,8.48,12.135-5.582,13.911-10.432
	c1.781-4.849,0.245-26.079,0.692-25.975c0.446,0.104,0.329,24.683,0.073,30.02c-0.256,5.339,7.56,8.198,9.934,9.05
	c4.947,1.776,10.686-2.998,15.388-3.764"/>
<g>
	<path fill="#33CC33" d="M93.826,54.5c-0.994,0.681-2.062,1.233-3.15,1.757c-1.092,0.517-2.231,0.945-3.415,1.269
		c-1.183,0.316-2.416,0.54-3.692,0.521c-0.637-0.001-1.285-0.083-1.928-0.23c-0.645-0.143-1.273-0.422-1.854-0.776
		c-0.588-0.354-1.097-0.825-1.524-1.366c-0.174-0.2-0.394-0.539-0.568-0.863c-0.158-0.32-0.286-0.658-0.373-1.017
		c-0.17-0.718-0.131-1.497,0.103-2.17c0.227-0.676,0.579-1.269,0.994-1.775c0.84-1.01,1.843-1.765,2.876-2.426
		c1.043-0.653,2.116-1.204,3.253-1.669l0.154,0.703c-1.189-0.058-2.315-0.271-3.438-0.572c-1.111-0.321-2.206-0.757-3.18-1.419
		c-0.981-0.648-1.817-1.545-2.384-2.608c-0.281-0.54-0.5-1.077-0.607-1.728c-0.1-0.628-0.036-1.295,0.17-1.906
		c0.425-1.233,1.316-2.174,2.244-2.924c0.949-0.743,1.977-1.33,3.015-1.857c0.518-0.265,1.044-0.508,1.564-0.738l0.764-0.345
		l0.35-0.17c0.093-0.044,0.231-0.137,0.178-0.102l-0.056,0.058c-0.016,0.02-0.031,0.04-0.043,0.062
		c-0.028,0.041-0.062,0.105-0.079,0.164c-0.014,0.042-0.043,0.151-0.04,0.269c0.002,0.056,0.01,0.112,0.024,0.164
		c0.127,0.343,0.032,0.088,0.058,0.162c-0.053-0.103,0.071,0.182,0.236,0.276c0.215,0.129,0.169,0.072,0.148,0.084
		c-0.064-0.009-0.2-0.016-0.327-0.02l-0.846-0.019c-0.584-0.015-1.187-0.052-1.793-0.135c-1.205-0.167-2.47-0.518-3.565-1.275
		c-1.1-0.738-1.964-1.867-2.403-3.082c-0.451-1.22-0.587-2.461-0.572-3.684c0.017-1.261,0.404-2.668,1.368-3.684
		c0.955-1.021,2.254-1.465,3.446-1.661c1.212-0.195,2.404-0.133,3.561-0.001c1.158,0.145,2.294,0.36,3.399,0.681
		c1.105,0.318,2.194,0.67,3.245,1.129l-0.059,0.168c-1.103-0.253-2.213-0.474-3.327-0.626c-1.115-0.141-2.226-0.279-3.332-0.291
		c-1.103-0.024-2.2,0.068-3.219,0.302c-1.017,0.236-1.935,0.695-2.509,1.382c-0.581,0.681-0.801,1.621-0.783,2.611
		c0.015,1.041,0.173,2.09,0.541,2.991c0.369,0.902,0.927,1.672,1.716,2.203c0.783,0.532,1.74,0.875,2.771,1.05
		c0.516,0.089,1.045,0.142,1.594,0.175l0.855,0.049c0.156,0.012,0.304,0.019,0.52,0.055c0.118,0.035,0.215,0.007,0.551,0.211
		c0.191,0.118,0.345,0.424,0.304,0.356l0.069,0.186c0.014,0.061,0.022,0.125,0.024,0.19c0.005,0.136-0.024,0.263-0.047,0.32
		c-0.025,0.074-0.065,0.156-0.101,0.212l-0.077,0.103c-0.064,0.078-0.09,0.095-0.131,0.133c-0.271,0.217-0.392,0.25-0.55,0.335
		l-0.421,0.188l-0.799,0.328l-1.546,0.64c-1.013,0.438-1.997,0.926-2.875,1.532c-0.878,0.593-1.676,1.313-2.08,2.215
		c-0.426,0.901-0.288,1.948,0.15,2.943c0.414,0.986,1.145,1.831,2.032,2.467c0.894,0.631,1.929,1.073,3.004,1.343
		c1.068,0.282,2.205,0.402,3.284,0.379l1.545-0.034l-1.392,0.737c-1.019,0.54-2.016,1.184-2.925,1.891
		c-0.906,0.708-1.751,1.501-2.354,2.393c-0.617,0.884-0.921,1.847-0.699,2.721c0.057,0.221,0.143,0.438,0.249,0.652
		c0.12,0.191,0.198,0.37,0.407,0.628c0.3,0.397,0.665,0.762,1.094,1.03c0.845,0.561,1.904,0.836,3.004,0.912
		c1.104,0.063,2.251-0.028,3.386-0.239c1.14-0.199,2.271-0.507,3.396-0.85c1.128-0.342,2.234-0.768,3.334-1.219L93.826,54.5z"/>
</g>
<g>
	<path fill="#33CC33" d="M89.286,19.581c-0.914-0.187-1.784-0.507-2.659-0.839c-0.862-0.359-1.708-0.78-2.505-1.318
		c-0.802-0.527-1.557-1.184-2.156-2.064c-0.298-0.44-0.516-0.974-0.609-1.55c-0.094-0.577-0.027-1.188,0.163-1.729l0.078-0.199
		l0.041-0.099l0.021-0.049l0.005-0.012l0.051-0.094l0.011-0.018l0.186-0.288c0.138-0.196,0.201-0.368,0.458-0.608
		c0.43-0.497,0.936-0.755,1.429-0.982c0.256-0.084,0.515-0.163,0.772-0.228l0.771-0.084c0.505-0.014,1.004-0.005,1.482,0.073
		c0.485,0.05,0.948,0.172,1.408,0.285c0.458,0.123,0.905,0.269,1.344,0.428c0.883,0.31,1.735,0.653,2.586,1.049l-0.348,0.388
		c-0.11-0.195-0.135-0.35-0.206-0.524l-0.099-0.516c-0.031-0.172-0.015-0.344-0.023-0.517c0.005-0.171-0.023-0.348,0.012-0.514
		l0.07-0.506c0.029-0.167,0.036-0.342,0.084-0.503c0.104-0.319,0.193-0.645,0.289-0.972c0.074-0.338,0.26-0.617,0.386-0.931
		c0.144-0.303,0.273-0.619,0.433-0.914l1.056-1.712l0.037-0.06l0.124-0.081l0.932-0.614c0.307-0.21,0.646-0.378,0.972-0.564
		c0.664-0.352,1.355-0.675,2.089-0.915c0.357-0.14,0.743-0.223,1.121-0.323c0.379-0.098,0.78-0.143,1.174-0.2
		c0.405-0.021,0.809-0.062,1.225-0.021c0.412,0.009,0.83,0.094,1.241,0.187c0.204,0.062,0.411,0.118,0.613,0.19l0.587,0.27
		c0.378,0.209,0.736,0.451,1.066,0.729c0.321,0.286,0.622,0.593,0.874,0.936l0.179,0.264l0.088,0.132l0.022,0.033l0.056,0.099
		l0.03,0.061c0.081,0.172,0.157,0.278,0.255,0.586c0.199,0.547,0.197,0.991,0.174,1.478c-0.049,0.469-0.176,0.906-0.351,1.304
		c-0.18,0.393-0.393,0.754-0.632,1.088c-0.247,0.338-0.487,0.625-0.818,0.942l-0.696-1.332c1.449-0.191,2.875-0.283,4.33-0.239
		c0.725,0.027,1.452,0.054,2.177,0.223c0.18,0.028,0.361,0.09,0.539,0.138c0.179,0.042,0.355,0.116,0.529,0.192
		c0.175,0.061,0.341,0.17,0.495,0.287c0.169,0.088,0.268,0.294,0.387,0.431l-0.148,0.098c-0.147-0.091-0.23-0.222-0.404-0.261
		c-0.153-0.058-0.296-0.122-0.468-0.143c-0.162-0.034-0.322-0.066-0.496-0.07c-0.17-0.009-0.333-0.031-0.507-0.022
		c-0.341-0.003-0.684,0.025-1.026,0.042c-0.344,0.026-0.687,0.055-1.03,0.101c-1.367,0.186-2.75,0.457-4.081,0.764l-2.295,0.531
		l1.598-1.862c0.173-0.202,0.384-0.482,0.54-0.743c0.161-0.269,0.292-0.545,0.393-0.818c0.089-0.275,0.148-0.542,0.165-0.793
		c0.004-0.229-0.027-0.525-0.096-0.655c0.009-0.045-0.112-0.247-0.193-0.396l-0.033-0.059l-0.008-0.015l-0.004-0.008
		c-0.01-0.016,0.073,0.127,0.037,0.065l-0.002-0.003l-0.017-0.022l-0.067-0.09l-0.133-0.18c-0.188-0.231-0.384-0.45-0.604-0.644
		c-0.224-0.189-0.464-0.352-0.716-0.497c-0.262-0.129-0.529-0.244-0.813-0.336c-0.288-0.077-0.578-0.16-0.889-0.18
		c-0.304-0.051-0.624-0.031-0.94-0.035c-0.32,0.033-0.644,0.048-0.968,0.115c-0.324,0.07-0.651,0.118-0.974,0.228
		c-0.647,0.181-1.295,0.416-1.929,0.696c-0.315,0.147-0.646,0.258-0.955,0.427l-0.947,0.465l0.16-0.141l-1.2,1.452
		c-0.18,0.255-0.329,0.526-0.497,0.791c-0.148,0.271-0.363,0.522-0.46,0.814c-0.12,0.284-0.244,0.57-0.355,0.861
		c-0.055,0.145-0.068,0.298-0.105,0.447l-0.095,0.452c-0.045,0.151-0.013,0.303-0.024,0.454c0.005,0.15-0.016,0.306,0.008,0.453
		l0.073,0.44c0.046,0.126,0.091,0.293,0.146,0.379l0.505,0.774l-0.853-0.386c-0.81-0.366-1.678-0.65-2.549-0.851
		c-0.44-0.088-0.88-0.162-1.32-0.211c-0.438-0.041-0.878-0.087-1.307-0.067c-0.432-0.008-0.85,0.05-1.251,0.118l-0.58,0.149
		c-0.173,0.084-0.347,0.155-0.522,0.22c-0.164,0.083-0.3,0.198-0.453,0.288c-0.157,0.094-0.206,0.22-0.333,0.305
		c-0.111,0.046-0.237,0.305-0.356,0.484l-0.181,0.291l-0.011,0.018c0.09-0.163,0.024-0.043,0.044-0.079l-0.001,0.004l-0.002,0.008
		l-0.011,0.03l-0.023,0.06l-0.051,0.118c-0.254,0.629-0.166,1.289,0.212,1.962c0.372,0.673,0.979,1.285,1.631,1.854
		c1.337,1.115,2.886,2.085,4.485,2.971L89.286,19.581z"/>
</g>
<g>
	<path fill="#33CC33" d="M102.625,13.019c0,0,1.562-0.247,3.93-0.453c1.187-0.087,2.566-0.213,4.093-0.062
		c0.385,0.052,0.773,0.094,1.212,0.317c0.107,0.066,0.229,0.131,0.33,0.286c0.031,0.051,0.038,0.039,0.085,0.144l0.023,0.068
		c0.016,0.042,0.032,0.088,0.045,0.162c0.06,0.289,0.057,0.454,0.064,0.672c0.012,0.819-0.075,1.613-0.174,2.41
		c-0.203,1.588-0.495,3.162-0.892,4.612c-0.223,0.717-0.433,1.415-0.702,2.053c-0.264,0.64-0.54,1.236-0.818,1.776
		c-0.272,0.543-0.601,1.005-0.891,1.409c-0.289,0.406-0.604,0.722-0.877,0.958c-0.285,0.228-0.527,0.381-0.707,0.456
		c-0.182,0.067-0.278,0.102-0.278,0.102c-0.028,0.011-0.06-0.004-0.069-0.032c-0.009-0.023-0.001-0.048,0.018-0.063l0.009-0.006
		c0,0,0.077-0.058,0.222-0.166c0.136-0.116,0.325-0.297,0.527-0.559c0.188-0.278,0.413-0.608,0.624-1.026
		c0.215-0.414,0.415-0.902,0.63-1.439c0.214-0.536,0.423-1.129,0.617-1.766c0.185-0.64,0.411-1.306,0.596-2.011
		c0.418-1.395,0.829-2.905,1.123-4.434c0.136-0.763,0.259-1.539,0.287-2.274c-0.002-0.382,0.026-0.668-0.146-0.73
		c-0.233-0.142-0.604-0.229-0.946-0.286c-1.415-0.208-2.811-0.191-3.985-0.185c-2.361,0.041-3.937,0.178-3.937,0.178
		c-0.03,0.002-0.057-0.02-0.06-0.05C102.575,13.049,102.597,13.023,102.625,13.019z"/>
</g>
<g>
	<path fill="#33CC33" d="M112.364,26c0,0-0.012,0.22-0.06,0.595c-0.026,0.187-0.054,0.415-0.105,0.668
		c-0.027,0.258-0.152,0.537-0.263,0.846c-0.114,0.31-0.242,0.651-0.398,1.006c-0.164,0.335-0.35,0.672-0.549,1.022
		c-0.202,0.347-0.403,0.716-0.652,1.051c-0.238,0.345-0.494,0.685-0.748,1.026c-1.052,1.336-2.271,2.528-3.321,3.281
		c-0.514,0.387-0.973,0.676-1.32,0.848c-0.34,0.176-0.54,0.259-0.54,0.259s0.106-0.2,0.302-0.521
		c0.203-0.309,0.468-0.771,0.818-1.29c0.35-0.516,0.741-1.136,1.209-1.748c0.229-0.311,0.455-0.641,0.704-0.959
		c0.239-0.326,0.511-0.635,0.748-0.968c0.496-0.65,1.035-1.27,1.504-1.87c0.248-0.292,0.489-0.575,0.717-0.843
		c0.204-0.265,0.415-0.511,0.614-0.742c0.185-0.242,0.41-0.428,0.549-0.654c0.146-0.215,0.291-0.395,0.406-0.545
		C112.214,26.164,112.364,26,112.364,26z"/>
</g>
<g>
	<path fill="#33CC33" d="M103.966,41.777c0,0,0.269-0.493,0.844-1.292c0.289-0.398,0.651-0.877,1.116-1.393
		c0.229-0.26,0.483-0.532,0.763-0.813c0.283-0.279,0.681-0.432,1.04-0.677c0.768-0.423,1.62-0.897,2.779-1.053
		c0.569-0.073,1.252-0.044,1.896,0.263c0.646,0.299,1.149,0.855,1.437,1.413c0.611,1.147,0.726,2.261,0.798,3.453
		c0.003,0.54,0.036,1.061,0.014,1.627c-0.052,0.582-0.075,1.179-0.162,1.753c-0.188,1.136-0.46,2.268-0.911,3.328
		c-0.225,0.53-0.452,1.055-0.768,1.534c-0.269,0.503-0.621,0.95-0.978,1.385c-0.329,0.453-0.793,0.794-1.176,1.178
		c-0.464,0.302-0.877,0.662-1.373,0.869c-0.484,0.23-0.96,0.441-1.467,0.529c-0.49,0.151-0.982,0.168-1.457,0.178
		c-0.236,0.014-0.467,0.016-0.688-0.021c-0.225-0.013-0.444-0.049-0.646-0.125c-0.418-0.106-0.749-0.358-1.076-0.524
		c-0.16-0.092-0.315-0.176-0.458-0.267c-0.13-0.108-0.256-0.213-0.376-0.314c-0.231-0.201-0.443-0.386-0.635-0.553
		c-0.341-0.372-0.568-0.694-0.734-0.896c-0.16-0.204-0.245-0.313-0.245-0.313s0.493,0.237,1.356,0.651
		c0.221,0.07,0.466,0.146,0.731,0.23c0.128,0.042,0.262,0.086,0.399,0.131c0.143,0.021,0.291,0.043,0.443,0.065
		c0.305,0.025,0.606,0.128,0.938,0.075c0.325-0.052,0.636,0.162,0.982,0.081c0.343-0.01,0.7-0.011,1.056-0.129
		c0.178-0.053,0.369-0.064,0.545-0.147c0.176-0.08,0.355-0.161,0.537-0.243c0.371-0.145,0.688-0.441,1.05-0.661
		c0.299-0.317,0.67-0.565,0.937-0.944c0.29-0.355,0.583-0.718,0.807-1.146c0.267-0.396,0.458-0.848,0.651-1.303
		c0.39-0.909,0.627-1.903,0.796-2.909c0.075-0.499,0.09-0.992,0.143-1.486c0.022-0.514-0.011-1.072-0.013-1.601
		c-0.045-0.926-0.199-1.969-0.574-2.619c-0.369-0.687-0.838-0.852-1.557-0.776c-0.705,0.082-1.456,0.458-2.101,0.823
		c-0.339,0.174-0.599,0.443-0.923,0.593c-0.328,0.146-0.639,0.296-0.929,0.445c-0.577,0.304-1.086,0.582-1.502,0.822
		C104.441,41.477,103.966,41.777,103.966,41.777z"/>
</g>
<g>
</g>
<g>
</g>
<g>
</g>
<g>
</g>
<g>
</g>
<g>
</g>
<g>
</g>
<g>
</g>
<g>
</g>
<g>
</g>
<g>
</g>
<g>
</g>
<g>
</g>
<g>
</g>
<g>
</g>
</svg>
